Plot: Johnny Smith had the perfect life. Until he was in coma for six years. When he awoke, he found his fiance married to another man. His son doesn't know who he is. Everything's changed. Including Johnny. One touch, he can see things. Things that have happened. Things that will happen. You should see what he sees.

Creators: Michael Piller, Shawn Piller 
Stars: Anthony Michael Hall, Nicole de Boer, Chris Bruno 

Video: XviD, 656x352, ~ 972 Kbps
Audio Γäû1: MP3; 48,0 KHz; 128 Kbps, CBR; 2 ch (Russian) 
Audio Γäû2: MP3; 48,0 KHz; ~131 Kbps, VBR; 2 ch (English)

MediaInfo 0.7.61 (s02e04):
General
Complete name                            : D:111111Dead_zoneseason_24  seriya.avi
Format                                   : AVI
Format/Info                              : Audio Video Interleave
File size                                : 389 MiB
Duration                                 : 43mn 41s
Overall bit rate                         : 1 246 Kbps
Writing application                      : VirtualDubMod 1.5.10.2 (build 2540/release)
Writing library                          : VirtualDubMod build 2540/release

Video
ID                                       : 0
Format                                   : MPEG-4 Visual
Format profile                           : Simple@L3
Format settings, BVOP                    : No
Format settings, QPel                    : No
Format settings, GMC                     : No warppoints
Format settings, Matrix                  : Default (H.263)
Codec ID                                 : XVID
Codec ID/Hint                            : XviD
Duration                                 : 43mn 41s
Bit rate                                 : 976 Kbps
Width                                    : 640 pixels
Height                                   : 368 pixels
Display aspect ratio                     : 1.739
Frame rate                               : 23.976 fps
Color space                              : YUV
Chroma subsampling                       : 4:2:0
Bit depth                                : 8 bits
Scan type                                : Progressive
Compression mode                         : Lossy
Bits/(Pixel*Frame)                       : 0.173
Stream size                              : 305 MiB (78%)
Writing library                          : XviD 0.0.12 (UTC 2003-06-11)

Audio #1
ID                                       : 1
Format                                   : MPEG Audio
Format version                           : Version 1
Format profile                           : Layer 3
Mode                                     : Joint stereo
Mode extension                           : MS Stereo
Codec ID                                 : 55
Codec ID/Hint                            : MP3
Duration                                 : 43mn 41s
Bit rate mode                            : Constant
Bit rate                                 : 128 Kbps
Channel(s)                               : 2 channels
Sampling rate                            : 44.1 KHz
Compression mode                         : Lossy
Stream size                              : 40.0 MiB (10%)
Alignment                                : Split accross interleaves
Interleave, duration                     : 42 ms (1.00 video frame)
Interleave, preload duration             : 500 ms

Audio #2
ID                                       : 2
Format                                   : MPEG Audio
Format version                           : Version 1
Format profile                           : Layer 3
Codec ID                                 : 55
Codec ID/Hint                            : MP3
Duration                                 : 43mn 41s
Bit rate mode                            : Constant
Bit rate                                 : 128 Kbps
Channel(s)                               : 2 channels
Sampling rate                            : 44.1 KHz
Compression mode                         : Lossy
Delay relative to video                  : 1s 0ms
Stream size                              : 40.0 MiB (10%)
Alignment                                : Split accross interleaves
Interleave, duration                     : 42 ms (1.00 video frame)


